<mxfile host="Electron" modified="2024-02-04T17:15:45.197Z" agent="Mozilla/5.0 (Windows NT 10.0; Win64; x64) AppleWebKit/537.36 (KHTML, like Gecko) draw.io/22.1.21 Chrome/120.0.6099.109 Electron/28.1.0 Safari/537.36" etag="TuFc5aCP685CTuyIBLK6" version="22.1.21" type="device">
  <diagram name="Page-1" id="DGiZzYKYaP5Thqw_gsoi">
    <mxGraphModel dx="2736" dy="2000" grid="1" gridSize="10" guides="1" tooltips="1" connect="1" arrows="1" fold="1" page="1" pageScale="1" pageWidth="850" pageHeight="1100" math="0" shadow="0">
      <root>
        <mxCell id="0" />
        <mxCell id="1" parent="0" />
        <mxCell id="YFNZnRJK23i6IDz-B84K-7" value="" style="whiteSpace=wrap;html=1;fillColor=#f8cecc;strokeColor=#b85450;" vertex="1" parent="1">
          <mxGeometry x="100" y="350" width="310" height="550" as="geometry" />
        </mxCell>
        <mxCell id="HMDEBa7ngfnfUWs22Q22-3" style="edgeStyle=orthogonalEdgeStyle;rounded=0;orthogonalLoop=1;jettySize=auto;html=1;" parent="1" source="HMDEBa7ngfnfUWs22Q22-26" edge="1">
          <mxGeometry relative="1" as="geometry">
            <mxPoint x="490" y="280" as="targetPoint" />
          </mxGeometry>
        </mxCell>
        <mxCell id="HMDEBa7ngfnfUWs22Q22-1" value="" style="rounded=0;whiteSpace=wrap;html=1;" parent="1" vertex="1">
          <mxGeometry x="430" y="-20" width="120" height="60" as="geometry" />
        </mxCell>
        <mxCell id="HMDEBa7ngfnfUWs22Q22-4" value="E_W8_UART_GO" style="text;html=1;align=center;verticalAlign=middle;resizable=0;points=[];autosize=1;strokeColor=none;fillColor=none;" parent="1" vertex="1">
          <mxGeometry x="495" y="-50" width="120" height="30" as="geometry" />
        </mxCell>
        <mxCell id="HMDEBa7ngfnfUWs22Q22-9" style="edgeStyle=orthogonalEdgeStyle;rounded=0;orthogonalLoop=1;jettySize=auto;html=1;entryX=0.5;entryY=0;entryDx=0;entryDy=0;exitX=0;exitY=0.5;exitDx=0;exitDy=0;" parent="1" source="HMDEBa7ngfnfUWs22Q22-12" target="HMDEBa7ngfnfUWs22Q22-6" edge="1">
          <mxGeometry relative="1" as="geometry">
            <mxPoint x="450" y="320" as="sourcePoint" />
          </mxGeometry>
        </mxCell>
        <mxCell id="HMDEBa7ngfnfUWs22Q22-10" style="edgeStyle=orthogonalEdgeStyle;rounded=0;orthogonalLoop=1;jettySize=auto;html=1;entryX=0.5;entryY=0;entryDx=0;entryDy=0;" parent="1" target="HMDEBa7ngfnfUWs22Q22-7" edge="1">
          <mxGeometry relative="1" as="geometry">
            <mxPoint x="490" y="360" as="sourcePoint" />
          </mxGeometry>
        </mxCell>
        <mxCell id="HMDEBa7ngfnfUWs22Q22-11" style="edgeStyle=orthogonalEdgeStyle;rounded=0;orthogonalLoop=1;jettySize=auto;html=1;entryX=0.5;entryY=0;entryDx=0;entryDy=0;exitX=1;exitY=0.5;exitDx=0;exitDy=0;" parent="1" source="HMDEBa7ngfnfUWs22Q22-12" target="HMDEBa7ngfnfUWs22Q22-8" edge="1">
          <mxGeometry relative="1" as="geometry">
            <mxPoint x="530" y="320" as="sourcePoint" />
          </mxGeometry>
        </mxCell>
        <mxCell id="HMDEBa7ngfnfUWs22Q22-21" style="edgeStyle=orthogonalEdgeStyle;rounded=0;orthogonalLoop=1;jettySize=auto;html=1;" parent="1" source="HMDEBa7ngfnfUWs22Q22-6" edge="1">
          <mxGeometry relative="1" as="geometry">
            <mxPoint x="240" y="540" as="targetPoint" />
          </mxGeometry>
        </mxCell>
        <mxCell id="HMDEBa7ngfnfUWs22Q22-6" value="INI_nonograma" style="whiteSpace=wrap;html=1;" parent="1" vertex="1">
          <mxGeometry x="180" y="430" width="120" height="60" as="geometry" />
        </mxCell>
        <mxCell id="HMDEBa7ngfnfUWs22Q22-7" value="" style="whiteSpace=wrap;html=1;" parent="1" vertex="1">
          <mxGeometry x="430" y="430" width="120" height="60" as="geometry" />
        </mxCell>
        <mxCell id="HMDEBa7ngfnfUWs22Q22-24" style="edgeStyle=orthogonalEdgeStyle;rounded=0;orthogonalLoop=1;jettySize=auto;html=1;entryX=0.5;entryY=0;entryDx=0;entryDy=0;" parent="1" source="HMDEBa7ngfnfUWs22Q22-8" target="7Fne5vAYXI1dAxKiL2MZ-1" edge="1">
          <mxGeometry relative="1" as="geometry">
            <mxPoint x="920" y="540" as="targetPoint" />
          </mxGeometry>
        </mxCell>
        <mxCell id="HMDEBa7ngfnfUWs22Q22-8" value="" style="whiteSpace=wrap;html=1;" parent="1" vertex="1">
          <mxGeometry x="860" y="430" width="120" height="60" as="geometry" />
        </mxCell>
        <mxCell id="HMDEBa7ngfnfUWs22Q22-12" value="MODO" style="shape=hexagon;perimeter=hexagonPerimeter2;whiteSpace=wrap;html=1;fixedSize=1;" parent="1" vertex="1">
          <mxGeometry x="430" y="280" width="120" height="80" as="geometry" />
        </mxCell>
        <mxCell id="HMDEBa7ngfnfUWs22Q22-14" value="0" style="text;html=1;align=center;verticalAlign=middle;resizable=0;points=[];autosize=1;strokeColor=none;fillColor=none;" parent="1" vertex="1">
          <mxGeometry x="370" y="290" width="30" height="30" as="geometry" />
        </mxCell>
        <mxCell id="HMDEBa7ngfnfUWs22Q22-15" value="2" style="text;html=1;align=center;verticalAlign=middle;resizable=0;points=[];autosize=1;strokeColor=none;fillColor=none;" parent="1" vertex="1">
          <mxGeometry x="590" y="290" width="30" height="30" as="geometry" />
        </mxCell>
        <mxCell id="HMDEBa7ngfnfUWs22Q22-16" value="1" style="text;html=1;align=center;verticalAlign=middle;resizable=0;points=[];autosize=1;strokeColor=none;fillColor=none;" parent="1" vertex="1">
          <mxGeometry x="490" y="368" width="30" height="30" as="geometry" />
        </mxCell>
        <mxCell id="HMDEBa7ngfnfUWs22Q22-17" value="Camino para inicializar el nonograma" style="text;html=1;align=center;verticalAlign=middle;resizable=0;points=[];autosize=1;strokeColor=none;fillColor=none;" parent="1" vertex="1">
          <mxGeometry x="-65" y="438" width="220" height="30" as="geometry" />
        </mxCell>
        <mxCell id="HMDEBa7ngfnfUWs22Q22-18" value="Gestion con el control del nonograma" style="text;html=1;align=center;verticalAlign=middle;resizable=0;points=[];autosize=1;strokeColor=none;fillColor=none;" parent="1" vertex="1">
          <mxGeometry x="1000" y="438" width="220" height="30" as="geometry" />
        </mxCell>
        <mxCell id="HMDEBa7ngfnfUWs22Q22-46" style="edgeStyle=orthogonalEdgeStyle;rounded=0;orthogonalLoop=1;jettySize=auto;html=1;entryX=0.5;entryY=0;entryDx=0;entryDy=0;" parent="1" target="HMDEBa7ngfnfUWs22Q22-25" edge="1">
          <mxGeometry relative="1" as="geometry">
            <mxPoint x="920" y="620" as="sourcePoint" />
          </mxGeometry>
        </mxCell>
        <mxCell id="HMDEBa7ngfnfUWs22Q22-48" style="edgeStyle=orthogonalEdgeStyle;rounded=0;orthogonalLoop=1;jettySize=auto;html=1;" parent="1" edge="1">
          <mxGeometry relative="1" as="geometry">
            <mxPoint x="1040" y="590" as="targetPoint" />
            <mxPoint x="970" y="590" as="sourcePoint" />
          </mxGeometry>
        </mxCell>
        <mxCell id="HMDEBa7ngfnfUWs22Q22-55" style="edgeStyle=orthogonalEdgeStyle;rounded=0;orthogonalLoop=1;jettySize=auto;html=1;entryX=0.5;entryY=0;entryDx=0;entryDy=0;" parent="1" source="HMDEBa7ngfnfUWs22Q22-25" target="HMDEBa7ngfnfUWs22Q22-54" edge="1">
          <mxGeometry relative="1" as="geometry" />
        </mxCell>
        <mxCell id="HMDEBa7ngfnfUWs22Q22-25" value="OUT_CMD" style="whiteSpace=wrap;html=1;" parent="1" vertex="1">
          <mxGeometry x="860" y="780" width="120" height="60" as="geometry" />
        </mxCell>
        <mxCell id="HMDEBa7ngfnfUWs22Q22-27" value="" style="edgeStyle=orthogonalEdgeStyle;rounded=0;orthogonalLoop=1;jettySize=auto;html=1;" parent="1" source="HMDEBa7ngfnfUWs22Q22-1" target="HMDEBa7ngfnfUWs22Q22-26" edge="1">
          <mxGeometry relative="1" as="geometry">
            <mxPoint x="490" y="40" as="sourcePoint" />
            <mxPoint x="490" y="280" as="targetPoint" />
          </mxGeometry>
        </mxCell>
        <mxCell id="HMDEBa7ngfnfUWs22Q22-28" style="edgeStyle=orthogonalEdgeStyle;rounded=0;orthogonalLoop=1;jettySize=auto;html=1;entryX=0;entryY=0.5;entryDx=0;entryDy=0;" parent="1" source="HMDEBa7ngfnfUWs22Q22-26" target="HMDEBa7ngfnfUWs22Q22-1" edge="1">
          <mxGeometry relative="1" as="geometry">
            <Array as="points">
              <mxPoint x="410" y="140" />
              <mxPoint x="410" y="10" />
            </Array>
          </mxGeometry>
        </mxCell>
        <mxCell id="HMDEBa7ngfnfUWs22Q22-26" value="CMD_PX_GO" style="rhombus;whiteSpace=wrap;html=1;" parent="1" vertex="1">
          <mxGeometry x="440" y="90" width="100" height="100" as="geometry" />
        </mxCell>
        <mxCell id="HMDEBa7ngfnfUWs22Q22-29" value="0" style="text;html=1;align=center;verticalAlign=middle;resizable=0;points=[];autosize=1;strokeColor=none;fillColor=none;" parent="1" vertex="1">
          <mxGeometry x="425" y="110" width="30" height="30" as="geometry" />
        </mxCell>
        <mxCell id="HMDEBa7ngfnfUWs22Q22-30" value="1" style="text;html=1;align=center;verticalAlign=middle;resizable=0;points=[];autosize=1;strokeColor=none;fillColor=none;" parent="1" vertex="1">
          <mxGeometry x="490" y="180" width="30" height="30" as="geometry" />
        </mxCell>
        <mxCell id="HMDEBa7ngfnfUWs22Q22-47" value="UP,DOWN;LEFT;RIGHT;ACTION" style="text;html=1;align=center;verticalAlign=middle;resizable=0;points=[];autosize=1;strokeColor=none;fillColor=none;" parent="1" vertex="1">
          <mxGeometry x="620" y="630" width="200" height="30" as="geometry" />
        </mxCell>
        <mxCell id="HMDEBa7ngfnfUWs22Q22-50" value="E_W8_UART_GO" style="text;html=1;align=center;verticalAlign=middle;resizable=0;points=[];autosize=1;fillColor=#f5f5f5;fontColor=#333333;strokeColor=#666666;" parent="1" vertex="1">
          <mxGeometry x="1060" y="575" width="120" height="30" as="geometry" />
        </mxCell>
        <mxCell id="HMDEBa7ngfnfUWs22Q22-51" value="0" style="text;html=1;align=center;verticalAlign=middle;resizable=0;points=[];autosize=1;strokeColor=none;fillColor=none;" parent="1" vertex="1">
          <mxGeometry x="980" y="560" width="30" height="30" as="geometry" />
        </mxCell>
        <mxCell id="HMDEBa7ngfnfUWs22Q22-53" value="VALID_CHAR &amp;lt;= Command/=&quot;111&quot;" style="text;html=1;align=center;verticalAlign=middle;resizable=0;points=[];autosize=1;strokeColor=none;fillColor=none;" parent="1" vertex="1">
          <mxGeometry x="615" y="575" width="210" height="30" as="geometry" />
        </mxCell>
        <mxCell id="HMDEBa7ngfnfUWs22Q22-57" style="edgeStyle=orthogonalEdgeStyle;rounded=0;orthogonalLoop=1;jettySize=auto;html=1;" parent="1" source="HMDEBa7ngfnfUWs22Q22-54" edge="1">
          <mxGeometry relative="1" as="geometry">
            <mxPoint x="920" y="1020" as="targetPoint" />
          </mxGeometry>
        </mxCell>
        <mxCell id="HMDEBa7ngfnfUWs22Q22-59" style="edgeStyle=orthogonalEdgeStyle;rounded=0;orthogonalLoop=1;jettySize=auto;html=1;entryX=0;entryY=0.5;entryDx=0;entryDy=0;" parent="1" source="HMDEBa7ngfnfUWs22Q22-54" target="HMDEBa7ngfnfUWs22Q22-25" edge="1">
          <mxGeometry relative="1" as="geometry">
            <Array as="points">
              <mxPoint x="840" y="935" />
              <mxPoint x="840" y="810" />
            </Array>
          </mxGeometry>
        </mxCell>
        <mxCell id="HMDEBa7ngfnfUWs22Q22-54" value="DONE_CMD" style="rhombus;whiteSpace=wrap;html=1;" parent="1" vertex="1">
          <mxGeometry x="875" y="890" width="90" height="90" as="geometry" />
        </mxCell>
        <mxCell id="HMDEBa7ngfnfUWs22Q22-58" value="E_W8_UART_GO" style="text;html=1;align=center;verticalAlign=middle;resizable=0;points=[];autosize=1;fillColor=#f5f5f5;fontColor=#333333;strokeColor=#666666;" parent="1" vertex="1">
          <mxGeometry x="855" y="1020" width="120" height="30" as="geometry" />
        </mxCell>
        <mxCell id="HMDEBa7ngfnfUWs22Q22-60" value="0" style="text;html=1;align=center;verticalAlign=middle;resizable=0;points=[];autosize=1;strokeColor=none;fillColor=none;" parent="1" vertex="1">
          <mxGeometry x="850" y="900" width="30" height="30" as="geometry" />
        </mxCell>
        <mxCell id="HMDEBa7ngfnfUWs22Q22-61" value="1" style="text;html=1;align=center;verticalAlign=middle;resizable=0;points=[];autosize=1;strokeColor=none;fillColor=none;" parent="1" vertex="1">
          <mxGeometry x="930" y="980" width="30" height="30" as="geometry" />
        </mxCell>
        <mxCell id="HMDEBa7ngfnfUWs22Q22-62" value="DONE_CMD es&lt;br&gt;[CMD=(&quot;Up&quot;or&quot;Down&quot;or&quot;Right&quot;or&quot;Left&quot;) and DONE_MOVE= &#39;1&#39;]&lt;br&gt;or&lt;br&gt;[CMD=Enter and ]" style="text;html=1;align=center;verticalAlign=middle;resizable=0;points=[];autosize=1;strokeColor=none;fillColor=none;" parent="1" vertex="1">
          <mxGeometry x="420" y="868" width="360" height="70" as="geometry" />
        </mxCell>
        <mxCell id="HMDEBa7ngfnfUWs22Q22-64" style="edgeStyle=orthogonalEdgeStyle;rounded=0;orthogonalLoop=1;jettySize=auto;html=1;entryX=0;entryY=0.5;entryDx=0;entryDy=0;" parent="1" source="HMDEBa7ngfnfUWs22Q22-63" target="HMDEBa7ngfnfUWs22Q22-6" edge="1">
          <mxGeometry relative="1" as="geometry">
            <Array as="points">
              <mxPoint x="160" y="600" />
              <mxPoint x="160" y="460" />
            </Array>
          </mxGeometry>
        </mxCell>
        <mxCell id="HMDEBa7ngfnfUWs22Q22-66" style="edgeStyle=orthogonalEdgeStyle;rounded=0;orthogonalLoop=1;jettySize=auto;html=1;" parent="1" source="HMDEBa7ngfnfUWs22Q22-63" target="HMDEBa7ngfnfUWs22Q22-65" edge="1">
          <mxGeometry relative="1" as="geometry" />
        </mxCell>
        <mxCell id="HMDEBa7ngfnfUWs22Q22-63" value="Nono_Init_Done" style="rhombus;whiteSpace=wrap;html=1;" parent="1" vertex="1">
          <mxGeometry x="180" y="540" width="120" height="120" as="geometry" />
        </mxCell>
        <mxCell id="HMDEBa7ngfnfUWs22Q22-65" value="E_W8_UART_GO" style="text;html=1;align=center;verticalAlign=middle;resizable=0;points=[];autosize=1;fillColor=#f5f5f5;fontColor=#333333;strokeColor=#666666;" parent="1" vertex="1">
          <mxGeometry x="180" y="770" width="120" height="30" as="geometry" />
        </mxCell>
        <mxCell id="HMDEBa7ngfnfUWs22Q22-67" value="Out_cmd lo que hace es activar &lt;br&gt;el pin de salida segun el comando" style="text;html=1;align=center;verticalAlign=middle;resizable=0;points=[];autosize=1;strokeColor=none;fillColor=none;" parent="1" vertex="1">
          <mxGeometry x="1010" y="780" width="200" height="40" as="geometry" />
        </mxCell>
        <mxCell id="HMDEBa7ngfnfUWs22Q22-68" value="E_MODE_NONO" style="text;html=1;align=center;verticalAlign=middle;resizable=0;points=[];autosize=1;strokeColor=none;fillColor=none;" parent="1" vertex="1">
          <mxGeometry x="920" y="398" width="120" height="30" as="geometry" />
        </mxCell>
        <mxCell id="HMDEBa7ngfnfUWs22Q22-72" value="LD_CHAR" style="ellipse;whiteSpace=wrap;html=1;" parent="1" vertex="1">
          <mxGeometry x="430" y="210" width="120" height="50" as="geometry" />
        </mxCell>
        <mxCell id="7Fne5vAYXI1dAxKiL2MZ-1" value="VALID_CHAR" style="rhombus;whiteSpace=wrap;html=1;" parent="1" vertex="1">
          <mxGeometry x="875" y="545" width="90" height="90" as="geometry" />
        </mxCell>
        <mxCell id="YFNZnRJK23i6IDz-B84K-1" value="E_HANDSHAKE_INI" style="text;html=1;align=center;verticalAlign=middle;resizable=0;points=[];autosize=1;strokeColor=none;fillColor=none;" vertex="1" parent="1">
          <mxGeometry x="250" y="398" width="130" height="30" as="geometry" />
        </mxCell>
        <mxCell id="YFNZnRJK23i6IDz-B84K-2" value="E_HANDSHAKE_NONO" style="text;html=1;align=center;verticalAlign=middle;resizable=0;points=[];autosize=1;strokeColor=none;fillColor=none;" vertex="1" parent="1">
          <mxGeometry x="915" y="750" width="160" height="30" as="geometry" />
        </mxCell>
        <mxCell id="YFNZnRJK23i6IDz-B84K-3" value="NONO_MODO" style="ellipse;whiteSpace=wrap;html=1;" vertex="1" parent="1">
          <mxGeometry x="180" y="690" width="120" height="50" as="geometry" />
        </mxCell>
        <mxCell id="YFNZnRJK23i6IDz-B84K-4" value="LD_COMMAND" style="ellipse;whiteSpace=wrap;html=1;" vertex="1" parent="1">
          <mxGeometry x="860" y="680" width="120" height="50" as="geometry" />
        </mxCell>
        <mxCell id="YFNZnRJK23i6IDz-B84K-5" value="1" style="text;html=1;align=center;verticalAlign=middle;resizable=0;points=[];autosize=1;strokeColor=none;fillColor=none;" vertex="1" parent="1">
          <mxGeometry x="920" y="635" width="30" height="30" as="geometry" />
        </mxCell>
        <mxCell id="YFNZnRJK23i6IDz-B84K-6" value="Aqui falta el camino para esperar &lt;br&gt;los 10*10 codigos del nonograma" style="text;html=1;align=center;verticalAlign=middle;resizable=0;points=[];autosize=1;strokeColor=#666666;fillColor=#f5f5f5;fontColor=#333333;" vertex="1" parent="1">
          <mxGeometry x="150" y="810" width="200" height="40" as="geometry" />
        </mxCell>
      </root>
    </mxGraphModel>
  </diagram>
</mxfile>
